<svg width="105" height="33" viewBox="0 0 105 33" fill="none" xmlns="http://www.w3.org/2000/svg">
<path d="M9.16647 24.7051V7.89369H20.2974V10.8242H12.7208V14.83H19.5587V17.7605H12.7208V24.7051H9.16647ZM22.6226 24.7051V12.0965H26.1195V24.7051H22.6226ZM24.3792 10.4712C23.8593 10.4712 23.4133 10.2988 23.0412 9.95407C22.6745 9.60384 22.4912 9.18519 22.4912 8.69814C22.4912 8.21657 22.6745 7.8034 23.0412 7.45863C23.4133 7.1084 23.8593 6.93328 24.3792 6.93328C24.8991 6.93328 25.3424 7.1084 25.709 7.45863C26.0811 7.8034 26.2672 8.21657 26.2672 8.69814C26.2672 9.18519 26.0811 9.60384 25.709 9.95407C25.3424 10.2988 24.8991 10.4712 24.3792 10.4712ZM35.701 12.0965V14.7233H27.9192V12.0965H35.701ZM29.7005 24.7051V11.1854C29.7005 10.2715 29.8783 9.51354 30.2341 8.91157C30.5952 8.3096 31.0878 7.85812 31.7116 7.55714C32.3355 7.25615 33.0442 7.10566 33.8377 7.10566C34.374 7.10566 34.8638 7.1467 35.307 7.22879C35.7558 7.31088 36.0896 7.38475 36.3085 7.45042L35.6846 10.0772C35.5478 10.0334 35.3782 9.99238 35.1757 9.95407C34.9787 9.91577 34.7762 9.89661 34.5682 9.89661C34.0538 9.89661 33.6954 10.017 33.4929 10.2578C33.2904 10.4931 33.1892 10.8242 33.1892 11.251V24.7051H29.7005ZM44.5438 12.0965V14.7233H36.9508V12.0965H44.5438ZM38.6746 9.07574H42.1715V20.8306C42.1715 21.1535 42.2208 21.4052 42.3193 21.5858C42.4178 21.7609 42.5546 21.884 42.7297 21.9552C42.9103 22.0263 43.1183 22.0619 43.3536 22.0619C43.5178 22.0619 43.6819 22.0482 43.8461 22.0208C44.0103 21.988 44.1361 21.9634 44.2237 21.947L44.7737 24.5491C44.5986 24.6038 44.3523 24.6668 44.0349 24.7379C43.7175 24.8145 43.3317 24.861 42.8775 24.8775C42.0347 24.9103 41.2959 24.7981 40.6611 24.5409C40.0318 24.2837 39.542 23.8842 39.1918 23.3424C38.8415 22.8007 38.6692 22.1166 38.6746 21.2903V9.07574ZM50.5895 17.4158V24.7051H47.0926V7.89369H50.491V14.3211H50.6388C50.9234 13.5768 51.383 12.994 52.0178 12.5726C52.6527 12.1458 53.4489 11.9324 54.4066 11.9324C55.2822 11.9324 56.0456 12.1239 56.6968 12.507C57.3535 12.8846 57.8624 13.4291 58.2236 14.1405C58.5903 14.8464 58.7709 15.6919 58.7654 16.677V24.7051H55.2685V17.3008C55.274 16.5238 55.077 15.919 54.6775 15.4867C54.2834 15.0544 53.7307 14.8382 53.0193 14.8382C52.5432 14.8382 52.1218 14.9395 51.7552 15.142C51.394 15.3444 51.1094 15.64 50.9015 16.0285C50.699 16.4116 50.595 16.874 50.5895 17.4158Z" fill="#EF8435"/>
<path d="M59.8818 10.8242V7.89369H73.6888V10.8242H68.5419V24.7051H65.0286V10.8242H59.8818ZM74.5876 24.7051V12.0965H77.9778V14.2965H78.1092C78.339 13.5139 78.7248 12.9229 79.2666 12.5234C79.8084 12.1184 80.4322 11.9159 81.1382 11.9159C81.3133 11.9159 81.5021 11.9269 81.7046 11.9488C81.907 11.9707 82.0849 12.0008 82.2381 12.0391V15.142C82.074 15.0927 81.8468 15.0489 81.5568 15.0106C81.2668 14.9723 81.0013 14.9532 80.7606 14.9532C80.2461 14.9532 79.7865 15.0653 79.3815 15.2897C78.982 15.5086 78.6646 15.8151 78.4293 16.2091C78.1995 16.6031 78.0845 17.0573 78.0845 17.5717V24.7051H74.5876ZM86.5887 29.4333C86.1455 29.4333 85.7295 29.3977 85.341 29.3266C84.9579 29.2609 84.6405 29.1761 84.3888 29.0721L85.1768 26.4617C85.5873 26.5876 85.9567 26.656 86.285 26.667C86.6188 26.6779 86.9061 26.6013 87.1469 26.4371C87.3932 26.2729 87.5929 25.9938 87.7461 25.5998L87.9514 25.0663L83.4284 12.0965H87.1059L89.7162 21.3559H89.8476L92.4826 12.0965H96.1847L91.2841 26.0677C91.0488 26.7463 90.7286 27.3373 90.3237 27.8408C89.9242 28.3497 89.418 28.741 88.8051 29.0146C88.1922 29.2937 87.4534 29.4333 86.5887 29.4333Z" fill="white"/>
</svg>
